<svg width="100%" height="100%" viewBox="0 0 145 145" version="1.1" xmlns="http://www.w3.org/2000/svg"
     xml:space="preserve"
     style="fill-rule:evenodd;clip-rule:evenodd;stroke-linejoin:round;stroke-miterlimit:2;">
    <g>
        <circle cx="72.206" cy="72.206" r="72.206" style="fill:#3730a3;"/>
        <g>
            <path d="M33.95,108.701c-3.053,0 -5.846,-0.465 -8.381,-1.396c-2.535,-0.932 -4.747,-2.328 -6.635,-4.191c-1.888,-1.862 -3.337,-4.19 -4.345,-6.984c-1.009,-2.793 -1.514,-6.078 -1.514,-9.855c0,-2.121 -0.349,-3.932 -1.047,-5.432c-0.699,-1.5 -1.772,-2.638 -3.221,-3.414l-1.008,-0.388c-1.397,-0.776 -2.096,-1.837 -2.096,-3.182l0,-2.871c0,-1.345 0.699,-2.38 2.096,-3.104l1.008,-0.466c1.501,-0.776 2.587,-1.901 3.26,-3.375c0.672,-1.475 1.008,-3.272 1.008,-5.393c0,-3.777 0.505,-7.049 1.514,-9.817c1.008,-2.767 2.444,-5.083 4.306,-6.945c1.863,-1.862 4.061,-3.259 6.596,-4.19c2.535,-0.931 5.329,-1.423 8.381,-1.475l0.466,0c0.465,0 0.866,0.168 1.202,0.505c0.337,0.336 0.505,0.737 0.505,1.202l-0,7.062c-0,0.466 -0.155,0.854 -0.466,1.164c-0.31,0.31 -0.672,0.492 -1.086,0.543l-0.311,0c-2.172,0.155 -3.931,0.686 -5.276,1.591c-1.345,0.905 -2.328,2.289 -2.949,4.152c-0.621,1.862 -0.931,4.319 -0.931,7.372c-0,3.259 -0.544,5.988 -1.63,8.186c-1.086,2.199 -2.457,3.686 -4.113,4.462c1.138,0.466 2.134,1.32 2.988,2.561c0.853,1.242 1.526,2.729 2.017,4.462c0.492,1.733 0.738,3.609 0.738,5.626c-0,3.001 0.31,5.445 0.931,7.333c0.621,1.889 1.604,3.272 2.949,4.152c1.345,0.879 3.078,1.423 5.199,1.629l0.388,0c0.414,0.052 0.776,0.233 1.086,0.544c0.311,0.31 0.466,0.698 0.466,1.164l-0,7.061c-0,0.518 -0.168,0.931 -0.505,1.242c-0.336,0.31 -0.737,0.465 -1.202,0.465l-0.388,0Z" style="fill:#fff;fill-rule:nonzero;"/>
            <path d="M47.452,96.441c-0.517,-0 -0.97,-0.194 -1.358,-0.582c-0.388,-0.388 -0.582,-0.841 -0.582,-1.358l0,-50.44c0,-0.569 0.194,-1.035 0.582,-1.397c0.388,-0.362 0.841,-0.543 1.358,-0.543l8.381,-0c0.879,-0 1.526,0.22 1.94,0.659c0.414,0.44 0.672,0.789 0.776,1.048l13.657,24.444l13.658,-24.444c0.155,-0.259 0.427,-0.608 0.815,-1.048c0.388,-0.439 1.021,-0.659 1.901,-0.659l8.303,-0c0.569,-0 1.048,0.181 1.436,0.543c0.388,0.362 0.582,0.828 0.582,1.397l-0,50.44c-0,0.517 -0.194,0.97 -0.582,1.358c-0.388,0.388 -0.867,0.582 -1.436,0.582l-9.234,-0c-0.569,-0 -1.048,-0.194 -1.436,-0.582c-0.388,-0.388 -0.582,-0.841 -0.582,-1.358l0,-29.1l-8.691,16.218c-0.259,0.466 -0.595,0.88 -1.009,1.242c-0.414,0.362 -0.983,0.543 -1.707,0.543l-4.035,-0c-0.725,-0 -1.294,-0.181 -1.707,-0.543c-0.414,-0.362 -0.751,-0.776 -1.009,-1.242l-8.769,-16.218l-0,29.1c-0,0.517 -0.181,0.97 -0.543,1.358c-0.362,0.388 -0.828,0.582 -1.397,0.582l-9.312,-0Z" style="fill:#fff;fill-rule:nonzero;"/>
            <path d="M110.541,36.223c3.052,0.052 5.845,0.531 8.38,1.436c2.535,0.905 4.734,2.289 6.596,4.151c1.863,1.863 3.311,4.204 4.346,7.023c1.035,2.82 1.552,6.092 1.552,9.817c-0,2.172 0.336,3.996 1.009,5.47c0.672,1.475 1.759,2.6 3.259,3.376l0.931,0.466c1.397,0.724 2.095,1.759 2.095,3.104l0,2.871c0,1.345 -0.698,2.379 -2.095,3.104l-1.009,0.465c-1.448,0.725 -2.509,1.837 -3.181,3.337c-0.673,1.5 -1.009,3.311 -1.009,5.432c-0,3.777 -0.517,7.062 -1.552,9.855c-1.035,2.794 -2.483,5.109 -4.346,6.945c-1.862,1.837 -4.061,3.234 -6.596,4.191c-2.535,0.957 -5.302,1.435 -8.303,1.435l-0.465,0c-0.518,0 -0.932,-0.155 -1.242,-0.465c-0.31,-0.311 -0.466,-0.724 -0.466,-1.242l0,-7.061c0,-0.466 0.156,-0.854 0.466,-1.164c0.31,-0.311 0.672,-0.492 1.086,-0.544l0.233,0c2.173,-0.155 3.945,-0.685 5.316,-1.59c1.371,-0.906 2.367,-2.29 2.987,-4.152c0.621,-1.862 0.932,-4.294 0.932,-7.294c-0,-3.311 0.53,-6.066 1.59,-8.265c1.061,-2.198 2.419,-3.686 4.074,-4.462c-1.086,-0.517 -2.056,-1.383 -2.91,-2.599c-0.853,-1.216 -1.526,-2.677 -2.017,-4.385c-0.492,-1.707 -0.737,-3.595 -0.737,-5.664c-0,-3.053 -0.311,-5.497 -0.932,-7.334c-0.62,-1.836 -1.603,-3.22 -2.948,-4.151c-1.346,-0.931 -3.079,-1.475 -5.2,-1.63l-0.388,0c-0.414,-0.051 -0.776,-0.233 -1.086,-0.543c-0.31,-0.31 -0.466,-0.698 -0.466,-1.164l0,-7.062c0,-0.465 0.156,-0.866 0.466,-1.202c0.31,-0.337 0.724,-0.505 1.242,-0.505l0.388,0Z" style="fill:#fff;fill-rule:nonzero;"/>
        </g>
    </g>
</svg>
