<svg width="100%" height="100%" viewBox="0 0 555 145" version="1.1" xmlns="http://www.w3.org/2000/svg"
     xml:space="preserve"
     style="fill-rule:evenodd;clip-rule:evenodd;stroke-linejoin:round;stroke-miterlimit:2;">
    <g>
        <g>
            <circle cx="72.206" cy="72.206" r="72.206" style="fill:#3730a3;"/>
            <g>
                <path d="M33.95,108.701c-3.053,0 -5.846,-0.465 -8.381,-1.396c-2.535,-0.932 -4.747,-2.328 -6.635,-4.191c-1.888,-1.862 -3.337,-4.19 -4.345,-6.984c-1.009,-2.793 -1.514,-6.078 -1.514,-9.855c0,-2.121 -0.349,-3.932 -1.047,-5.432c-0.699,-1.5 -1.772,-2.638 -3.221,-3.414l-1.008,-0.388c-1.397,-0.776 -2.096,-1.837 -2.096,-3.182l0,-2.871c0,-1.345 0.699,-2.38 2.096,-3.104l1.008,-0.466c1.501,-0.776 2.587,-1.901 3.26,-3.375c0.672,-1.475 1.008,-3.272 1.008,-5.393c0,-3.777 0.505,-7.049 1.514,-9.817c1.008,-2.767 2.444,-5.083 4.306,-6.945c1.863,-1.862 4.061,-3.259 6.596,-4.19c2.535,-0.931 5.329,-1.423 8.381,-1.475l0.466,0c0.465,0 0.866,0.168 1.202,0.505c0.337,0.336 0.505,0.737 0.505,1.202l-0,7.062c-0,0.466 -0.155,0.854 -0.466,1.164c-0.31,0.31 -0.672,0.492 -1.086,0.543l-0.311,0c-2.172,0.155 -3.931,0.686 -5.276,1.591c-1.345,0.905 -2.328,2.289 -2.949,4.152c-0.621,1.862 -0.931,4.319 -0.931,7.372c-0,3.259 -0.544,5.988 -1.63,8.186c-1.086,2.199 -2.457,3.686 -4.113,4.462c1.138,0.466 2.134,1.32 2.988,2.561c0.853,1.242 1.526,2.729 2.017,4.462c0.492,1.733 0.738,3.609 0.738,5.626c-0,3.001 0.31,5.445 0.931,7.333c0.621,1.889 1.604,3.272 2.949,4.152c1.345,0.879 3.078,1.423 5.199,1.629l0.388,0c0.414,0.052 0.776,0.233 1.086,0.544c0.311,0.31 0.466,0.698 0.466,1.164l-0,7.061c-0,0.518 -0.168,0.931 -0.505,1.242c-0.336,0.31 -0.737,0.465 -1.202,0.465l-0.388,0Z"
                      style="fill:#fff;fill-rule:nonzero;"/>
                <path d="M47.452,96.441c-0.517,-0 -0.97,-0.194 -1.358,-0.582c-0.388,-0.388 -0.582,-0.841 -0.582,-1.358l0,-50.44c0,-0.569 0.194,-1.035 0.582,-1.397c0.388,-0.362 0.841,-0.543 1.358,-0.543l8.381,-0c0.879,-0 1.526,0.22 1.94,0.659c0.414,0.44 0.672,0.789 0.776,1.048l13.657,24.444l13.658,-24.444c0.155,-0.259 0.427,-0.608 0.815,-1.048c0.388,-0.439 1.021,-0.659 1.901,-0.659l8.303,-0c0.569,-0 1.048,0.181 1.436,0.543c0.388,0.362 0.582,0.828 0.582,1.397l-0,50.44c-0,0.517 -0.194,0.97 -0.582,1.358c-0.388,0.388 -0.867,0.582 -1.436,0.582l-9.234,-0c-0.569,-0 -1.048,-0.194 -1.436,-0.582c-0.388,-0.388 -0.582,-0.841 -0.582,-1.358l0,-29.1l-8.691,16.218c-0.259,0.466 -0.595,0.88 -1.009,1.242c-0.414,0.362 -0.983,0.543 -1.707,0.543l-4.035,-0c-0.725,-0 -1.294,-0.181 -1.707,-0.543c-0.414,-0.362 -0.751,-0.776 -1.009,-1.242l-8.769,-16.218l-0,29.1c-0,0.517 -0.181,0.97 -0.543,1.358c-0.362,0.388 -0.828,0.582 -1.397,0.582l-9.312,-0Z"
                      style="fill:#fff;fill-rule:nonzero;"/>
                <path d="M110.541,36.223c3.052,0.052 5.845,0.531 8.38,1.436c2.535,0.905 4.734,2.289 6.596,4.151c1.863,1.863 3.311,4.204 4.346,7.023c1.035,2.82 1.552,6.092 1.552,9.817c-0,2.172 0.336,3.996 1.009,5.47c0.672,1.475 1.759,2.6 3.259,3.376l0.931,0.466c1.397,0.724 2.095,1.759 2.095,3.104l0,2.871c0,1.345 -0.698,2.379 -2.095,3.104l-1.009,0.465c-1.448,0.725 -2.509,1.837 -3.181,3.337c-0.673,1.5 -1.009,3.311 -1.009,5.432c-0,3.777 -0.517,7.062 -1.552,9.855c-1.035,2.794 -2.483,5.109 -4.346,6.945c-1.862,1.837 -4.061,3.234 -6.596,4.191c-2.535,0.957 -5.302,1.435 -8.303,1.435l-0.465,0c-0.518,0 -0.932,-0.155 -1.242,-0.465c-0.31,-0.311 -0.466,-0.724 -0.466,-1.242l0,-7.061c0,-0.466 0.156,-0.854 0.466,-1.164c0.31,-0.311 0.672,-0.492 1.086,-0.544l0.233,0c2.173,-0.155 3.945,-0.685 5.316,-1.59c1.371,-0.906 2.367,-2.29 2.987,-4.152c0.621,-1.862 0.932,-4.294 0.932,-7.294c-0,-3.311 0.53,-6.066 1.59,-8.265c1.061,-2.198 2.419,-3.686 4.074,-4.462c-1.086,-0.517 -2.056,-1.383 -2.91,-2.599c-0.853,-1.216 -1.526,-2.677 -2.017,-4.385c-0.492,-1.707 -0.737,-3.595 -0.737,-5.664c-0,-3.053 -0.311,-5.497 -0.932,-7.334c-0.62,-1.836 -1.603,-3.22 -2.948,-4.151c-1.346,-0.931 -3.079,-1.475 -5.2,-1.63l-0.388,0c-0.414,-0.051 -0.776,-0.233 -1.086,-0.543c-0.31,-0.31 -0.466,-0.698 -0.466,-1.164l0,-7.062c0,-0.465 0.156,-0.866 0.466,-1.202c0.31,-0.337 0.724,-0.505 1.242,-0.505l0.388,0Z"
                      style="fill:#fff;fill-rule:nonzero;"/>
            </g>
        </g>
        <g>
            <path d="M158.9,93.158c-0.48,0 -0.889,-0.168 -1.225,-0.504c-0.336,-0.336 -0.504,-0.745 -0.504,-1.225l-0,-34.011c-0,-0.48 0.168,-0.889 0.504,-1.225c0.336,-0.336 0.745,-0.504 1.225,-0.504l5.981,-0c0.528,-0 0.948,0.168 1.261,0.504c0.312,0.336 0.468,0.745 0.468,1.225l-0,34.011c-0,0.48 -0.156,0.889 -0.468,1.225c-0.313,0.336 -0.733,0.504 -1.261,0.504l-5.981,0Zm-0.288,-43.666c-0.481,-0 -0.889,-0.168 -1.225,-0.505c-0.337,-0.336 -0.505,-0.744 -0.505,-1.225l0,-5.188c0,-0.48 0.168,-0.888 0.505,-1.225c0.336,-0.336 0.744,-0.504 1.225,-0.504l6.557,-0c0.528,-0 0.961,0.168 1.297,0.504c0.336,0.337 0.504,0.745 0.504,1.225l0,5.188c0,0.481 -0.168,0.889 -0.504,1.225c-0.336,0.337 -0.769,0.505 -1.297,0.505l-6.557,-0Z"
                  style="fill:currentColor;fill-rule:nonzero;"/>
            <path d="M192.406,93.879c-3.458,-0 -6.497,-0.649 -9.115,-1.946c-2.618,-1.297 -4.66,-3.182 -6.125,-5.656c-1.465,-2.474 -2.269,-5.465 -2.414,-8.971c-0.048,-0.721 -0.072,-1.67 -0.072,-2.847c0,-1.176 0.024,-2.149 0.072,-2.918c0.145,-3.507 0.949,-6.497 2.414,-8.971c1.465,-2.474 3.507,-4.359 6.125,-5.656c2.618,-1.297 5.657,-1.946 9.115,-1.946c3.075,0 5.693,0.42 7.855,1.261c2.161,0.841 3.939,1.922 5.332,3.243c1.393,1.321 2.438,2.69 3.134,4.107c0.697,1.417 1.069,2.702 1.117,3.855c0.048,0.528 -0.108,0.949 -0.468,1.261c-0.361,0.312 -0.781,0.468 -1.261,0.468l-6.341,0c-0.481,0 -0.853,-0.12 -1.117,-0.36c-0.264,-0.24 -0.517,-0.6 -0.757,-1.081c-0.72,-1.921 -1.669,-3.278 -2.846,-4.071c-1.177,-0.793 -2.678,-1.189 -4.504,-1.189c-2.401,0 -4.311,0.757 -5.728,2.27c-1.417,1.513 -2.174,3.903 -2.27,7.169c-0.096,1.826 -0.096,3.507 0,5.044c0.096,3.315 0.853,5.717 2.27,7.206c1.417,1.489 3.327,2.234 5.728,2.234c1.874,-0 3.387,-0.396 4.54,-1.189c1.153,-0.793 2.09,-2.15 2.81,-4.071c0.24,-0.481 0.493,-0.841 0.757,-1.081c0.264,-0.24 0.636,-0.36 1.117,-0.36l6.341,-0c0.48,-0 0.9,0.156 1.261,0.468c0.36,0.312 0.516,0.733 0.468,1.261c-0.048,0.865 -0.276,1.837 -0.684,2.918c-0.409,1.081 -1.057,2.186 -1.946,3.315c-0.889,1.129 -2.006,2.162 -3.351,3.098c-1.345,0.937 -2.966,1.694 -4.863,2.27c-1.898,0.577 -4.096,0.865 -6.594,0.865Z"
                  style="fill:currentColor;fill-rule:nonzero;"/>
            <path d="M219.139,93.158c-0.48,0 -0.888,-0.168 -1.225,-0.504c-0.336,-0.336 -0.504,-0.745 -0.504,-1.225l0,-47.702c0,-0.48 0.168,-0.888 0.504,-1.225c0.337,-0.336 0.745,-0.504 1.225,-0.504l6.414,-0c0.528,-0 0.948,0.168 1.261,0.504c0.312,0.337 0.468,0.745 0.468,1.225l-0,16.429c1.297,-1.537 2.882,-2.786 4.756,-3.747c1.873,-0.961 4.179,-1.441 6.917,-1.441c2.93,0 5.488,0.661 7.674,1.982c2.186,1.321 3.879,3.182 5.08,5.584c1.201,2.402 1.802,5.284 1.802,8.647l-0,20.248c-0,0.48 -0.169,0.889 -0.505,1.225c-0.336,0.336 -0.744,0.504 -1.225,0.504l-6.485,0c-0.48,0 -0.889,-0.168 -1.225,-0.504c-0.336,-0.336 -0.504,-0.745 -0.504,-1.225l-0,-19.816c-0,-2.786 -0.685,-4.972 -2.054,-6.557c-1.369,-1.585 -3.351,-2.378 -5.945,-2.378c-2.498,0 -4.503,0.793 -6.016,2.378c-1.514,1.585 -2.27,3.771 -2.27,6.557l-0,19.816c-0,0.48 -0.156,0.889 -0.468,1.225c-0.313,0.336 -0.733,0.504 -1.261,0.504l-6.414,0Z"
                  style="fill:currentColor;fill-rule:nonzero;"/>
            <path d="M273.542,93.879c-2.498,-0 -4.755,-0.493 -6.773,-1.477c-2.018,-0.985 -3.615,-2.306 -4.792,-3.963c-1.177,-1.658 -1.765,-3.519 -1.765,-5.585c-0,-3.363 1.369,-6.041 4.107,-8.034c2.738,-1.994 6.317,-3.327 10.737,-3.999l9.871,-1.442l0,-1.513c0,-2.017 -0.504,-3.579 -1.513,-4.683c-1.009,-1.105 -2.738,-1.658 -5.188,-1.658c-1.729,0 -3.134,0.349 -4.215,1.045c-1.081,0.697 -1.886,1.621 -2.414,2.774c-0.384,0.625 -0.937,0.937 -1.657,0.937l-5.693,0c-0.528,0 -0.925,-0.144 -1.189,-0.432c-0.264,-0.289 -0.396,-0.673 -0.396,-1.153c0.048,-0.769 0.372,-1.706 0.973,-2.81c0.6,-1.105 1.513,-2.174 2.738,-3.207c1.225,-1.033 2.822,-1.909 4.792,-2.63c1.969,-0.721 4.347,-1.081 7.133,-1.081c3.027,0 5.585,0.372 7.674,1.117c2.09,0.745 3.759,1.741 5.008,2.99c1.249,1.249 2.162,2.714 2.738,4.396c0.577,1.681 0.865,3.459 0.865,5.332l-0,22.626c-0,0.48 -0.168,0.889 -0.504,1.225c-0.337,0.336 -0.745,0.504 -1.225,0.504l-5.837,0c-0.528,0 -0.949,-0.168 -1.261,-0.504c-0.312,-0.336 -0.468,-0.745 -0.468,-1.225l-0,-2.81c-0.625,0.864 -1.466,1.705 -2.522,2.522c-1.057,0.816 -2.342,1.477 -3.855,1.981c-1.514,0.505 -3.303,0.757 -5.369,0.757Zm2.45,-6.846c1.682,0 3.207,-0.36 4.576,-1.08c1.369,-0.721 2.45,-1.838 3.242,-3.351c0.793,-1.513 1.189,-3.423 1.189,-5.729l0,-1.513l-7.205,1.153c-2.835,0.432 -4.948,1.129 -6.341,2.09c-1.393,0.96 -2.09,2.137 -2.09,3.531c0,1.056 0.324,1.957 0.973,2.702c0.648,0.744 1.477,1.297 2.486,1.657c1.009,0.36 2.065,0.54 3.17,0.54Z"
                  style="fill:currentColor;fill-rule:nonzero;"/>
            <path d="M319.947,93.879c-5.332,-0 -9.56,-1.537 -12.682,-4.612c-3.122,-3.074 -4.804,-7.446 -5.044,-13.114c-0.048,-0.481 -0.072,-1.093 -0.072,-1.838c-0,-0.744 0.024,-1.333 0.072,-1.765c0.192,-3.651 1.021,-6.785 2.486,-9.403c1.465,-2.619 3.495,-4.636 6.089,-6.053c2.594,-1.417 5.644,-2.126 9.151,-2.126c3.891,0 7.158,0.805 9.8,2.414c2.642,1.609 4.635,3.843 5.98,6.701c1.346,2.859 2.018,6.161 2.018,9.908l0,1.513c0,0.481 -0.168,0.889 -0.504,1.225c-0.337,0.337 -0.769,0.505 -1.297,0.505l-23.923,-0l-0,0.576c0.048,1.681 0.372,3.231 0.973,4.648c0.6,1.417 1.489,2.558 2.666,3.422c1.177,0.865 2.582,1.298 4.215,1.298c1.345,-0 2.474,-0.205 3.387,-0.613c0.912,-0.408 1.657,-0.877 2.233,-1.405c0.577,-0.529 0.985,-0.961 1.225,-1.297c0.433,-0.577 0.781,-0.925 1.045,-1.045c0.264,-0.12 0.661,-0.18 1.189,-0.18l6.197,-0c0.48,-0 0.877,0.144 1.189,0.432c0.312,0.288 0.444,0.649 0.396,1.081c-0.048,0.769 -0.444,1.705 -1.189,2.81c-0.744,1.105 -1.813,2.186 -3.206,3.243c-1.393,1.057 -3.135,1.933 -5.224,2.63c-2.09,0.697 -4.48,1.045 -7.17,1.045Zm-7.926,-22.698l15.924,-0l0,-0.216c0,-1.874 -0.312,-3.519 -0.936,-4.936c-0.625,-1.417 -1.538,-2.522 -2.739,-3.315c-1.201,-0.792 -2.642,-1.189 -4.323,-1.189c-1.681,0 -3.122,0.397 -4.323,1.189c-1.201,0.793 -2.102,1.898 -2.703,3.315c-0.6,1.417 -0.9,3.062 -0.9,4.936l-0,0.216Z"
                  style="fill:currentColor;fill-rule:nonzero;"/>
            <path d="M347.184,93.158c-0.48,0 -0.888,-0.168 -1.224,-0.504c-0.337,-0.336 -0.505,-0.745 -0.505,-1.225l0,-47.702c0,-0.48 0.168,-0.888 0.505,-1.225c0.336,-0.336 0.744,-0.504 1.224,-0.504l5.981,-0c0.481,-0 0.889,0.168 1.225,0.504c0.336,0.337 0.505,0.745 0.505,1.225l-0,47.702c-0,0.48 -0.169,0.889 -0.505,1.225c-0.336,0.336 -0.744,0.504 -1.225,0.504l-5.981,0Z"
                  style="fill:currentColor;fill-rule:nonzero;"/>
            <path d="M383.573,93.158c-0.48,0 -0.888,-0.168 -1.225,-0.504c-0.336,-0.336 -0.504,-0.745 -0.504,-1.225l-0,-46.909c-0,-0.529 0.168,-0.961 0.504,-1.297c0.337,-0.336 0.745,-0.505 1.225,-0.505l20.897,0c3.891,0 7.061,0.589 9.511,1.766c2.45,1.177 4.264,2.798 5.441,4.864c1.176,2.065 1.765,4.467 1.765,7.205c-0,1.826 -0.324,3.423 -0.973,4.792c-0.648,1.369 -1.441,2.486 -2.378,3.351c-0.936,0.864 -1.861,1.537 -2.774,2.017c1.874,0.865 3.531,2.306 4.972,4.324c1.441,2.017 2.162,4.419 2.162,7.205c-0,2.883 -0.649,5.453 -1.946,7.711c-1.297,2.257 -3.218,4.023 -5.764,5.296c-2.546,1.273 -5.693,1.909 -9.44,1.909l-21.473,0Zm8.287,-7.638l12.033,0c2.594,0 4.564,-0.708 5.909,-2.125c1.345,-1.418 2.018,-3.135 2.018,-5.153c-0,-2.113 -0.685,-3.867 -2.054,-5.26c-1.369,-1.393 -3.327,-2.089 -5.873,-2.089l-12.033,-0l-0,14.627Zm-0,-22.121l11.313,-0c2.546,-0 4.455,-0.613 5.728,-1.838c1.273,-1.225 1.91,-2.822 1.91,-4.791c-0,-2.018 -0.637,-3.603 -1.91,-4.756c-1.273,-1.153 -3.182,-1.73 -5.728,-1.73l-11.313,0l-0,13.115Z"
                  style="fill:currentColor;fill-rule:nonzero;"/>
            <path d="M441.291,93.879c-2.498,-0 -4.756,-0.493 -6.774,-1.477c-2.017,-0.985 -3.614,-2.306 -4.791,-3.963c-1.177,-1.658 -1.766,-3.519 -1.766,-5.585c0,-3.363 1.369,-6.041 4.107,-8.034c2.739,-1.994 6.317,-3.327 10.737,-3.999l9.872,-1.442l-0,-1.513c-0,-2.017 -0.505,-3.579 -1.513,-4.683c-1.009,-1.105 -2.739,-1.658 -5.189,-1.658c-1.729,0 -3.134,0.349 -4.215,1.045c-1.081,0.697 -1.885,1.621 -2.414,2.774c-0.384,0.625 -0.937,0.937 -1.657,0.937l-5.693,0c-0.528,0 -0.924,-0.144 -1.189,-0.432c-0.264,-0.289 -0.396,-0.673 -0.396,-1.153c0.048,-0.769 0.372,-1.706 0.973,-2.81c0.6,-1.105 1.513,-2.174 2.738,-3.207c1.225,-1.033 2.822,-1.909 4.792,-2.63c1.969,-0.721 4.347,-1.081 7.134,-1.081c3.026,0 5.584,0.372 7.674,1.117c2.089,0.745 3.759,1.741 5.008,2.99c1.249,1.249 2.161,2.714 2.738,4.396c0.576,1.681 0.864,3.459 0.864,5.332l0,22.626c0,0.48 -0.168,0.889 -0.504,1.225c-0.336,0.336 -0.745,0.504 -1.225,0.504l-5.837,0c-0.528,0 -0.948,-0.168 -1.261,-0.504c-0.312,-0.336 -0.468,-0.745 -0.468,-1.225l0,-2.81c-0.624,0.864 -1.465,1.705 -2.522,2.522c-1.057,0.816 -2.342,1.477 -3.855,1.981c-1.513,0.505 -3.303,0.757 -5.368,0.757Zm2.45,-6.846c1.681,0 3.206,-0.36 4.575,-1.08c1.369,-0.721 2.45,-1.838 3.243,-3.351c0.792,-1.513 1.189,-3.423 1.189,-5.729l-0,-1.513l-7.206,1.153c-2.834,0.432 -4.948,1.129 -6.341,2.09c-1.393,0.96 -2.09,2.137 -2.09,3.531c0,1.056 0.325,1.957 0.973,2.702c0.649,0.744 1.477,1.297 2.486,1.657c1.009,0.36 2.066,0.54 3.171,0.54Z"
                  style="fill:currentColor;fill-rule:nonzero;"/>
            <path d="M473.284,93.158c-0.48,0 -0.889,-0.168 -1.225,-0.504c-0.336,-0.336 -0.504,-0.745 -0.504,-1.225l-0,-34.011c-0,-0.48 0.168,-0.889 0.504,-1.225c0.336,-0.336 0.745,-0.504 1.225,-0.504l5.981,-0c0.528,-0 0.948,0.168 1.261,0.504c0.312,0.336 0.468,0.745 0.468,1.225l0,34.011c0,0.48 -0.156,0.889 -0.468,1.225c-0.313,0.336 -0.733,0.504 -1.261,0.504l-5.981,0Zm-0.288,-43.666c-0.481,-0 -0.889,-0.168 -1.225,-0.505c-0.336,-0.336 -0.505,-0.744 -0.505,-1.225l0,-5.188c0,-0.48 0.169,-0.888 0.505,-1.225c0.336,-0.336 0.744,-0.504 1.225,-0.504l6.557,-0c0.528,-0 0.961,0.168 1.297,0.504c0.336,0.337 0.504,0.745 0.504,1.225l0,5.188c0,0.481 -0.168,0.889 -0.504,1.225c-0.336,0.337 -0.769,0.505 -1.297,0.505l-6.557,-0Z"
                  style="fill:currentColor;fill-rule:nonzero;"/>
            <path d="M492.307,93.158c-0.48,0 -0.889,-0.168 -1.225,-0.504c-0.336,-0.336 -0.504,-0.745 -0.504,-1.225l-0,-33.939c-0,-0.528 0.168,-0.961 0.504,-1.297c0.336,-0.336 0.745,-0.504 1.225,-0.504l5.837,-0c0.48,-0 0.9,0.168 1.261,0.504c0.36,0.336 0.54,0.769 0.54,1.297l0,2.954c1.105,-1.537 2.534,-2.714 4.287,-3.53c1.754,-0.817 3.783,-1.225 6.089,-1.225l2.955,-0c0.528,-0 0.948,0.168 1.261,0.504c0.312,0.336 0.468,0.745 0.468,1.225l-0,5.188c-0,0.48 -0.156,0.889 -0.468,1.225c-0.313,0.336 -0.733,0.504 -1.261,0.504l-5.621,0c-2.306,0 -4.095,0.637 -5.368,1.91c-1.273,1.273 -1.91,3.062 -1.91,5.368l0,19.816c0,0.48 -0.168,0.889 -0.504,1.225c-0.336,0.336 -0.769,0.504 -1.297,0.504l-6.269,0Z"
                  style="fill:currentColor;fill-rule:nonzero;"/>
            <path d="M533.956,93.879c-2.498,-0 -4.696,-0.421 -6.593,-1.261c-1.898,-0.841 -3.471,-2.03 -4.72,-3.567c-1.249,-1.537 -2.21,-3.351 -2.882,-5.44c-0.673,-2.09 -1.057,-4.384 -1.153,-6.882c-0.048,-0.864 -0.072,-1.645 -0.072,-2.342c-0,-0.696 0.024,-1.477 0.072,-2.341c0.096,-2.402 0.468,-4.636 1.117,-6.702c0.648,-2.065 1.609,-3.879 2.882,-5.44c1.273,-1.561 2.858,-2.774 4.756,-3.639c1.897,-0.865 4.095,-1.297 6.593,-1.297c2.594,0 4.792,0.444 6.593,1.333c1.802,0.889 3.303,2.03 4.504,3.423l-0,-15.997c-0,-0.48 0.156,-0.888 0.468,-1.225c0.312,-0.336 0.733,-0.504 1.261,-0.504l6.125,-0c0.48,-0 0.889,0.168 1.225,0.504c0.336,0.337 0.504,0.745 0.504,1.225l0,47.702c0,0.48 -0.168,0.889 -0.504,1.225c-0.336,0.336 -0.745,0.504 -1.225,0.504l-5.693,0c-0.528,0 -0.948,-0.168 -1.261,-0.504c-0.312,-0.336 -0.468,-0.745 -0.468,-1.225l-0,-2.666c-1.201,1.489 -2.726,2.714 -4.576,3.675c-1.849,0.96 -4.167,1.441 -6.953,1.441Zm2.666,-7.71c2.018,-0 3.627,-0.457 4.828,-1.369c1.201,-0.913 2.089,-2.078 2.666,-3.495c0.576,-1.417 0.889,-2.87 0.937,-4.36c0.048,-0.864 0.072,-1.789 0.072,-2.774c-0,-0.985 -0.024,-1.909 -0.072,-2.774c-0.048,-1.441 -0.385,-2.822 -1.009,-4.143c-0.625,-1.321 -1.537,-2.414 -2.738,-3.279c-1.201,-0.864 -2.762,-1.297 -4.684,-1.297c-2.018,0 -3.615,0.445 -4.792,1.333c-1.177,0.889 -2.029,2.054 -2.558,3.495c-0.528,1.441 -0.84,3.026 -0.937,4.756c-0.048,1.441 -0.048,2.882 0,4.323c0.097,1.73 0.409,3.315 0.937,4.756c0.529,1.441 1.381,2.606 2.558,3.495c1.177,0.888 2.774,1.333 4.792,1.333Z"
                  style="fill:currentColor;fill-rule:nonzero;"/>
        </g>
    </g>
</svg>
